<svg width="199" height="25" viewBox="0 0 199 25" fill="none" xmlns="http://www.w3.org/2000/svg">
<path d="M4.8 2.79999C4.80356 2.86282 4.8268 2.92295 4.86641 2.97185C4.90603 3.02075 4.96002 3.05595 5.02075 3.07248C5.08148 3.089 5.14586 3.08601 5.2048 3.06392C5.26373 3.04184 5.31422 3.00178 5.34913 2.94941C5.38404 2.89705 5.4016 2.83503 5.39932 2.77213C5.39704 2.70924 5.37504 2.64866 5.33643 2.59896C5.29782 2.54926 5.24456 2.51296 5.18418 2.4952C5.12381 2.47744 5.05937 2.47911 5 2.49999H4C3.46957 2.49999 2.96086 2.7107 2.58579 3.08578C2.21071 3.46085 2 3.96956 2 4.49999V9.49999C2 11.0913 2.63214 12.6174 3.75736 13.7426C4.88258 14.8678 6.4087 15.5 8 15.5C9.5913 15.5 11.1174 14.8678 12.2426 13.7426C13.3679 12.6174 14 11.0913 14 9.49999V4.49999C14 3.96956 13.7893 3.46085 13.4142 3.08578C13.0391 2.7107 12.5304 2.49999 12 2.49999H11C10.9803 2.51969 10.9647 2.54307 10.954 2.56881C10.9434 2.59455 10.9379 2.62213 10.9379 2.64999C10.9379 2.67785 10.9434 2.70543 10.954 2.73117C10.9647 2.75691 10.9803 2.78029 11 2.79999C11.0197 2.81969 11.0431 2.83531 11.0688 2.84597C11.0946 2.85663 11.1221 2.86212 11.15 2.86212C11.1779 2.86212 11.2054 2.85663 11.2312 2.84597C11.2569 2.83531 11.2803 2.81969 11.3 2.79999" stroke="black" stroke-width="2" stroke-linecap="round" stroke-linejoin="round"/>
<path d="M8 15.5V16.5C8 18.0913 8.63214 19.6174 9.75736 20.7426C10.8826 21.8679 12.4087 22.5 14 22.5V22.5C15.5913 22.5 17.1174 21.8679 18.2426 20.7426C19.3679 19.6174 20 18.0913 20 16.5V12.5" stroke="black" stroke-width="2" stroke-linecap="round" stroke-linejoin="round"/>
<path d="M20 12.5C21.1046 12.5 22 11.6046 22 10.5C22 9.39543 21.1046 8.5 20 8.5C18.8954 8.5 18 9.39543 18 10.5C18 11.6046 18.8954 12.5 20 12.5Z" stroke="black" stroke-width="2" stroke-linecap="round" stroke-linejoin="round"/>
<path d="M40.386 19V7.264H43.032V11.782H47.082V7.264H49.746V19H47.082V14.104H43.032V19H40.386ZM56.1329 19.216C55.5689 19.216 55.0229 19.114 54.4949 18.91C53.9669 18.694 53.4989 18.388 53.0909 17.992C52.6949 17.596 52.3769 17.11 52.1369 16.534C51.8969 15.946 51.7769 15.28 51.7769 14.536C51.7769 13.792 51.8969 13.132 52.1369 12.556C52.3769 11.968 52.6949 11.476 53.0909 11.08C53.4989 10.684 53.9669 10.384 54.4949 10.18C55.0229 9.964 55.5689 9.856 56.1329 9.856C56.6969 9.856 57.2369 9.964 57.7529 10.18C58.2809 10.384 58.7429 10.684 59.1389 11.08C59.5469 11.476 59.8709 11.968 60.1109 12.556C60.3509 13.132 60.4709 13.792 60.4709 14.536C60.4709 15.28 60.3509 15.946 60.1109 16.534C59.8709 17.11 59.5469 17.596 59.1389 17.992C58.7429 18.388 58.2809 18.694 57.7529 18.91C57.2369 19.114 56.6969 19.216 56.1329 19.216ZM56.1329 17.074C56.6729 17.074 57.0809 16.846 57.3569 16.39C57.6329 15.934 57.7709 15.316 57.7709 14.536C57.7709 13.756 57.6329 13.138 57.3569 12.682C57.0809 12.226 56.6729 11.998 56.1329 11.998C55.5809 11.998 55.1669 12.226 54.8909 12.682C54.6269 13.138 54.4949 13.756 54.4949 14.536C54.4949 15.316 54.6269 15.934 54.8909 16.39C55.1669 16.846 55.5809 17.074 56.1329 17.074ZM64.7133 19.216C64.2573 19.216 63.8733 19.144 63.5613 19C63.2493 18.856 62.9973 18.658 62.8053 18.406C62.6253 18.142 62.4933 17.83 62.4093 17.47C62.3253 17.098 62.2833 16.684 62.2833 16.228V6.382H64.9293V16.336C64.9293 16.612 64.9773 16.804 65.0733 16.912C65.1813 17.02 65.2893 17.074 65.3973 17.074C65.4573 17.074 65.5053 17.074 65.5413 17.074C65.5893 17.074 65.6493 17.062 65.7213 17.038L66.0453 19C65.9013 19.06 65.7153 19.108 65.4873 19.144C65.2713 19.192 65.0133 19.216 64.7133 19.216ZM69.6837 19.216C69.2757 19.216 68.9037 19.144 68.5677 19C68.2437 18.868 67.9677 18.682 67.7397 18.442C67.5117 18.19 67.3317 17.902 67.1997 17.578C67.0797 17.254 67.0197 16.9 67.0197 16.516C67.0197 15.58 67.4157 14.848 68.2077 14.32C68.9997 13.792 70.2777 13.438 72.0417 13.258C72.0177 12.862 71.8977 12.55 71.6817 12.322C71.4777 12.082 71.1297 11.962 70.6377 11.962C70.2537 11.962 69.8697 12.034 69.4857 12.178C69.1137 12.322 68.7117 12.52 68.2797 12.772L67.3257 11.026C67.9017 10.678 68.5017 10.396 69.1257 10.18C69.7617 9.964 70.4337 9.856 71.1417 9.856C72.2937 9.856 73.1697 10.186 73.7697 10.846C74.3817 11.494 74.6877 12.508 74.6877 13.888V19H72.5277L72.3477 18.082H72.2757C71.8917 18.418 71.4897 18.694 71.0697 18.91C70.6497 19.114 70.1877 19.216 69.6837 19.216ZM70.5837 17.164C70.8837 17.164 71.1417 17.098 71.3577 16.966C71.5737 16.834 71.8017 16.648 72.0417 16.408V14.842C71.1057 14.974 70.4577 15.166 70.0977 15.418C69.7377 15.67 69.5577 15.97 69.5577 16.318C69.5577 16.606 69.6477 16.822 69.8277 16.966C70.0197 17.098 70.2717 17.164 70.5837 17.164ZM80.1119 19.216C79.5599 19.216 79.0559 19.108 78.5999 18.892C78.1559 18.676 77.7719 18.37 77.4479 17.974C77.1359 17.566 76.8899 17.074 76.7099 16.498C76.5419 15.922 76.4579 15.268 76.4579 14.536C76.4579 13.804 76.5599 13.15 76.7639 12.574C76.9799 11.998 77.2559 11.512 77.5919 11.116C77.9399 10.708 78.3359 10.396 78.7799 10.18C79.2359 9.964 79.6979 9.856 80.1659 9.856C80.6699 9.856 81.0839 9.94 81.4079 10.108C81.7319 10.276 82.0499 10.504 82.3619 10.792L82.2539 9.424V6.382H84.8999V19H82.7399L82.5599 18.118H82.4879C82.1759 18.43 81.8099 18.694 81.3899 18.91C80.9699 19.114 80.5439 19.216 80.1119 19.216ZM80.7959 17.056C81.0839 17.056 81.3419 16.996 81.5699 16.876C81.8099 16.756 82.0379 16.546 82.2539 16.246V12.592C82.0139 12.376 81.7679 12.226 81.5159 12.142C81.2639 12.058 81.0179 12.016 80.7779 12.016C80.3579 12.016 79.9859 12.22 79.6619 12.628C79.3379 13.024 79.1759 13.648 79.1759 14.5C79.1759 15.388 79.3139 16.036 79.5899 16.444C79.8779 16.852 80.2799 17.056 80.7959 17.056ZM91.0782 19.216C90.5142 19.216 89.9682 19.114 89.4402 18.91C88.9122 18.694 88.4442 18.388 88.0362 17.992C87.6402 17.596 87.3222 17.11 87.0822 16.534C86.8422 15.946 86.7222 15.28 86.7222 14.536C86.7222 13.792 86.8422 13.132 87.0822 12.556C87.3222 11.968 87.6402 11.476 88.0362 11.08C88.4442 10.684 88.9122 10.384 89.4402 10.18C89.9682 9.964 90.5142 9.856 91.0782 9.856C91.6422 9.856 92.1822 9.964 92.6982 10.18C93.2262 10.384 93.6882 10.684 94.0842 11.08C94.4922 11.476 94.8162 11.968 95.0562 12.556C95.2962 13.132 95.4162 13.792 95.4162 14.536C95.4162 15.28 95.2962 15.946 95.0562 16.534C94.8162 17.11 94.4922 17.596 94.0842 17.992C93.6882 18.388 93.2262 18.694 92.6982 18.91C92.1822 19.114 91.6422 19.216 91.0782 19.216ZM91.0782 17.074C91.6182 17.074 92.0262 16.846 92.3022 16.39C92.5782 15.934 92.7162 15.316 92.7162 14.536C92.7162 13.756 92.5782 13.138 92.3022 12.682C92.0262 12.226 91.6182 11.998 91.0782 11.998C90.5262 11.998 90.1122 12.226 89.8362 12.682C89.5722 13.138 89.4402 13.756 89.4402 14.536C89.4402 15.316 89.5722 15.934 89.8362 16.39C90.1122 16.846 90.5262 17.074 91.0782 17.074ZM97.2286 19V6.382H99.8026V13.618H99.8746L102.701 10.072H105.581L102.449 13.744L105.815 19H102.953L100.937 15.526L99.8026 16.804V19H97.2286Z" fill="#101C45"/>
</svg>
